PathFileType	4	(X/Y/Z)	Run_500 01
DataRate	CameraRate	NumFrames	NumMarkers	Units	OrigDataRate	OrigDataStartFrame	OrigNumFrames
120	120	4	42	mm	120	3	128
Frame#	Time	LASI			RASI			LPSI			RPSI			RTH1			RTH2			RTH3			LTH1			LTH2			LTH3			RTB1			RTB2			LTB1			LTB2			LTB3			RCAL			RTOE			RMT5			LCAL			LTOE			LMT5			LACR			RACR			CLAV			C7			RUA1			RUA2			RUA3			RLEL			LUA1			LUA2			LUA3			LLEL			LMEL			RFAsuperior			RFAradius			RFAulna			LFAsuperior			LFAradius			LFAulna			RMEL			RTB3			
		X1	Y1	Z1	X2	Y2	Z2	X3	Y3	Z3	X4	Y4	Z4	X5	Y5	Z5	X6	Y6	Z6	X7	Y7	Z7	X8	Y8	Z8	X9	Y9	Z9	X10	Y10	Z10	X11	Y11	Z11	X12	Y12	Z12	X13	Y13	Z13	X14	Y14	Z14	X15	Y15	Z15	X16	Y16	Z16	X17	Y17	Z17	X18	Y18	Z18	X19	Y19	Z19	X20	Y20	Z20	X21	Y21	Z21	X22	Y22	Z22	X23	Y23	Z23	X24	Y24	Z24	X25	Y25	Z25	X26	Y26	Z26	X27	Y27	Z27	X28	Y28	Z28	X29	Y29	Z29	X30	Y30	Z30	X31	Y31	Z31	X32	Y32	Z32	X33	Y33	Z33	X34	Y34	Z34	X35	Y35	Z35	X36	Y36	Z36	X37	Y37	Z37	X38	Y38	Z38	X39	Y39	Z39	X40	Y40	Z40	X41	Y41	Z41	X42	Y42	Z42	

1	0.191667	1194.641709	1014.182972	-424.05532	1166.473707	1034.279514	-196.583011	1025.318815	1070.272188	-383.432088	1009.333908	1068.050477	-283.940789	1140.136327	879.71879	-131.509156	1267.908423	769.0343319999999	-153.506302	1251.457781	666.037413	-172.006093	1097.296176	847.140923	-481.536637	1126.014099	731.987287	-441.136733	1015.090424	637.884774	-434.126708	1396.733534	480.999622	-226.139451	1358.466172	405.817185	-175.047911	868.011846	474.24988	-372.428421	771.651493	516.969146	-430.395599	669.481714	493.518384	-373.753566	1371.897608	149.114371	-290.865096	1581.314908	169.906572	-280.050142	1561.088374	103.27834	-195.126726	588.019868	613.885686	-386.469347	490.149662	448.365976	-306.103202	441.874158	458.638749	-402.088517	1207.697642	1512.215447	-478.200698	1116.510946	1495.440027	-130.548833	1216.798052	1454.125201	-261.70981	1121.572105	1541.29624	-319.59362	1054.441747	1451.702092	-94.227315	1022.438809	1367.004195	-112.130487	952.112873	1408.168264	-144.013213	864.52446	1329.288896	-134.696139	1193.322032	1441.939454	-540.374357	1126.898103	1394.830026	-545.156683	1190.891752	1338.684725	-567.792503	1126.484998	1238.286544	-618.355623	1067.777083	1236.895833	-571.5736869999999	899.76723	1253.603373	-90.75517499999999	944.089458	1072.80143	-58.905505	888.739614	1057.048804	-95.894582	1201.857348	1245.35887	-576.402371	1300.594031	1287.740451	-413.859911	1310.753621	1222.215281	-421.128634	882.866802	1320.78771	-197.154942	1440.857192	306.140342	-238.142886	
2	0.2	1194.854784	1009.787903	-424.002209	1164.824953	1030.291762	-195.812272	1024.401358	1062.956005	-384.613089	1008.677332	1061.822555	-285.961695	1137.991443	876.162407	-132.876483	1265.597729	765.751438	-152.314809	1247.363581	661.583841	-173.714507	1100.495694	841.440799	-482.123615	1131.766575	727.227886	-444.383329	1023.685978	630.7567	-433.546448	1387.751678	470.686406	-229.670332	1348.140787	397.347947	-177.5834	880.4461240000001	474.538219	-375.158671	787.020351	525.509771	-431.694256	684.133457	509.517962	-374.870975	1348.14104	141.132625	-291.95196	1558.533296	148.82361	-284.968689	1536.429048	84.20464699999999	-198.732547	610.712706	636.493165	-383.336862	502.18833	473.260797	-311.959246	457.069242	490.086689	-408.69152	1205.068893	1506.414655	-477.023877	1117.903831	1487.288044	-127.635552	1216.840514	1447.597683	-261.002323	1120.97604	1535.676349	-316.749005	1056.485116	1441.805751	-90.685495	1024.938214	1357.091758	-109.138522	953.843057	1397.41993	-139.527242	867.515283	1316.942208	-129.053443	1187.48614	1437.637795	-539.686581	1119.168567	1391.80343	-541.8017129999999	1181.847236	1334.85377	-568.502879	1114.631903	1237.119141	-618.558343	1057.226145	1236.68993	-570.331213	904.60209	1241.26519	-86.726212	953.79599	1060.802646	-59.225818	897.6703690000001	1044.712043	-94.705001	1190.376768	1237.82978	-577.56861	1297.922785	1262.492897	-416.010769	1302.313824	1196.885891	-428.379152	884.745514	1309.506098	-191.963211	1425.08308	293.993129	-240.999308	
3	0.208333	1194.716327	1004.823733	-423.755245	1163.189562	1025.738125	-194.669792	1023.286778	1054.913618	-385.957542	1008.31438	1054.86001	-288.298119	1136.291443	872.78435	-134.306986	1263.392916	761.629732	-151.846744	1243.081647	656.335824	-175.337266	1102.86837	835.099055	-482.900227	1137.505882	722.045755	-448.020465	1033.222426	622.660736	-433.460497	1378.21469	459.274722	-232.780249	1336.725434	387.899998	-179.881651	894.291655	474.61221	-378.494083	804.592922	533.546996	-433.480588	701.272857	524.306555	-376.298374	1320.754011	132.746115	-291.053421	1531.508197	125.9917	-291.106521	1508.382354	65.93481800000001	-202.145953	634.7278250000001	657.266086	-380.437151	518.265432	495.906677	-317.698881	476.41388	518.065017	-414.967041	1202.198143	1499.909573	-476.058172	1119.285224	1478.152101	-124.837635	1216.951133	1440.467015	-260.377395	1120.20132	1529.281027	-313.979969	1058.684109	1430.38842	-87.35671600000001	1027.838508	1345.706931	-106.075158	955.305382	1385.094793	-134.082053	870.945329	1302.938548	-122.731423	1181.28526	1432.300909	-538.934881	1111.243274	1387.758931	-538.508377	1172.199515	1330.207383	-569.189877	1102.498287	1235.459659	-618.3698900000001	1046.538838	1235.910631	-568.58016	910.24555	1227.442921	-82.057536	964.7777149999999	1047.598164	-59.700483	907.558036	1031.174722	-92.802744	1178.264227	1229.622789	-578.755123	1293.229852	1235.309637	-419.41605	1292.025978	1170.55836	-436.377934	886.758015	1296.527219	-186.232907	1407.183558	280.748425	-243.070171	
4	0.216667	1194.213009	999.209684	-423.514314	1161.72676	1020.504578	-193.416689	1022.060204	1046.289506	-387.424998	1007.780836	1046.889888	-290.479911	1135.194584	868.9811570000001	-135.778019	1261.113881	755.889585	-152.895845	1238.477748	649.873098	-176.806928	1104.528093	827.862199	-483.616672	1143.630861	716.400995	-451.877868	1043.910409	613.770968	-434.301332	1367.902465	446.654687	-235.211414	1324.023136	377.2761	-182.053264	909.5084419999999	474.046648	-382.531614	824.231349	540.970943	-435.791933	720.6197979999999	537.381564	-378.104743	1289.066733	123.493511	-289.396511	1499.864186	104.768769	-296.988475	1476.445174	51.705376	-204.259517	660.119111	675.8684950000001	-378.173179	537.813668	516.101282	-323.103244	499.203615	542.279798	-420.836063	1199.056148	1492.878954	-475.26453	1120.694272	1468.229726	-122.254082	1217.120536	1432.835989	-259.843106	1119.293416	1522.189847	-311.377606	1061.053736	1417.758032	-84.19833300000001	1031.307572	1333.016544	-102.949374	956.710793	1371.226636	-127.765937	875.06807	1287.468241	-115.754998	1174.932212	1426.120951	-538.07029	1103.395302	1382.989829	-535.3673	1162.095496	1324.821289	-569.553964	1090.202975	1233.306699	-617.760133	1035.748377	1234.588292	-566.292661	917.046975	1212.257894	-76.966052	977.13849	1033.549698	-60.292593	918.900997	1016.519848	-90.49167	1165.73655	1220.839381	-580.021867	1286.249447	1206.454402	-424.056803	1279.679176	1143.452568	-445.944975	889.070068	1282.039503	-180.068009	1386.256123	266.4236	-245.004805	
